<?xml version="1.0" encoding="utf-8"?>
<!-- Generator: Adobe Illustrator 16.0.0, SVG Export Plug-In . SVG Version: 6.00 Build 0)  -->
<!DOCTYPE svg PUBLIC "-//W3C//DTD SVG 1.1//EN" "http://www.w3.org/Graphics/SVG/1.1/DTD/svg11.dtd">
<svg version="1.1" id="Layer_1" xmlns="http://www.w3.org/2000/svg" xmlns:xlink="http://www.w3.org/1999/xlink" x="0px" y="0px"
	 width="576.058px" height="318.032px" viewBox="0 0 576.058 318.032" enable-background="new 0 0 576.058 318.032"
	 xml:space="preserve">
<g>
	<path fill="#272635" d="M546.703,177.349c-5.021-12.916-15.256-22.99-27.477-30.013c3.344-2.212,4.539-3.271,6.656-5.229
		l1.143-0.939c0,0,22.637-20.157,17.932-53.386c-2.98-21.085-16.797-41.396-37.461-50.753c-4.086-1.849-8.303-3.072-12.822-4.075
		c-5.867-1.311-11.598-1.752-17.398-1.861c-0.303-0.006-153.188,0.371-229.822-0.003c-11.336,9.659-32.755,27.648-32.71,28.731
		c0.224,5.761,0.767,3.749,0.224,6.842c-0.275,1.577-10.868,5.595-15.887,8.603c-13.383-14.221-25.707-29.296-38.905-43.675
		c-1.804,0.03-97.711,0.164-99.555,0.287l-33.034,29.03v235.385l90.907-0.353l43.414-32.047v-44.981
		c18.32,19.338,53.364,57.226,72.093,76.971c2.723,2.879,1.404,1.475,0.027,0c24.103,0.094,48.178,0.175,72.281,0.269
		c3.656-2.81,7.479-5.079,11.335-7.923c0.33-0.234,1.336-0.434,1.483,0.327c0.479,2.444-0.381,4.846,0.479,7.231
		c49.599,0.728,99.118,1.547,148.776,0.104c4.48-0.142,8.701-1.403,12.852-2.892c6.795-2.436,12.182-6.789,17.395-11.655
		c12.844-11.964,25.014-22.849,36.344-36.481c3.352-4.017,5.521-8.382,7.859-12.875c1.941-3.746,3.434-7.586,4.518-11.658
		c1.113-4.176,2.471-8.08,2.982-12.404C551.595,197.334,550.501,187.118,546.703,177.349L546.703,177.349z M318.71,181.223
		c-1.17,1.143-2.24,2.926-3.44,4.365c-2.519,3.009-6.063,4.636-9.88,5.496c-6.266,1.422-12.124,2.916-18.683,2.031
		c-10.317-1.389-20.052-4.869-26.796-12.535c-5.334-6.076-7.984-13.619-7.129-21.688c1.001-9.41,6.775-17.211,15.55-21.131
		c6.73-3.011,13.987-4.782,21.533-4.039c5.625,0.556,11.059,1.401,16.174,4.047c9.141,4.735,13.149,14.516,13.83,24.169
		c0.077,1.183,0.065,3.131,0.729,3.289c5.719,1.375,11.606-0.315,17.36,1.217C332.007,171.965,324.533,175.564,318.71,181.223
		L318.71,181.223z"/>
	<path fill="#FFF200" d="M348.669,173.317c-1.146,2.357-2.233,4.669-3.867,6.766c-5.53,7.15-11.469,12.195-17.788,15.297
		c-13.386,6.572-33.388,8.054-44.451,5.889c-8.351-1.626-14.164-2.146-23.123-8.26c-12.263-8.36-21.352-26.981-20.26-43.827
		c0.649-10.083,5.125-19.249,12.133-26.932c5.525-6.063,12.321-9.764,19.621-13.08c5.629-2.555,8.121-2.549,12.427-3.157
		c12.148-1.703,22.512-1.558,36.155,2.625c14.062,4.307,26.056,14.189,30.885,27.85c0.509-0.012,87.749,0.949,87.571,0.359
		c-20.844-69.117-98.381-73.988-98.381-73.988c0.05-2.674,0.05-4.833-0.381-8.872c4.552-0.369,8.935-0.053,13.416,0.798
		c71.984,13.677,90.168,59.746,94.152,74.214c1.766,6.388,2.729,12.852,2.705,19.301c-0.072,19.208-5.047,38.157-18.219,53.907
		c-20.514,24.516-49.081,38.361-80.71,42.518c-0.681,0.082-0.611,0.996-0.63,1.193c-0.276,3.887-1.186,7.959,0.99,11.682
		c45.457,0.479,90.846,0.281,136.311-0.527c4.564-0.082,8.947-1.85,13.732-1.498c0.65,0.045,0.674-1.205,1.273-1.357
		c9.479-2.493,17.145-8.157,23.451-15.168c14.602-16.198,18.498-38.43,11.445-58.508c-3.283-9.346-9.828-16.41-18.484-22.146
		c-2.715-1.796-5.373-3.227-8.25-4.473c-5.26-2.28-10.975-3.26-16.109-5.865c11.027-3.358,21.195-8.678,29.068-17.302
		c14.377-15.756,15.908-38.132,8.461-57.084c-8.563-21.79-32.547-30.056-32.547-30.056c-9.387-3.277-19.145-3.768-28.689-3.951
		c-0.275-0.006-214.426-0.62-214.426-0.348c0,4.316,0.74,13.316,0.74,22.452c-17.067,2.381-44.524,10.659-61.925,24.298
		c-0.042,0.035,2.557,2.917,0,0c-13.944-15.901-26.701-31.304-40.224-46.833c-28.83,0.083-55.55-0.28-83.951-0.242l-0.169,218.797
		c26.344,0,53.431,0,79.98-0.082l1.68-116.895c35.25,38.677,69.843,77.82,105.126,116.473c26.935,1.428,54.025,1.123,81.036,0.68
		c2.457-7.142,0.498-14.525,1.328-21.758c28.895-2.05,57.541-12.314,78.119-33.31c10.586-10.81,17.066-23.414,20.328-38.167
		c0.418-1.908,1.887-5.426-0.098-5.513c-28.396-1.218-56.744-0.72-85.174,0.164C352.953,159.377,352.399,165.645,348.669,173.317
		L348.669,173.317z"/>
</g>
<polygon display="none" fill="#FFFFFF" stroke="#000000" stroke-width="0.6448" stroke-miterlimit="2.6131" points="
	261.706,267.036 260.72,263.631 260.689,263.631 259.626,267.036 "/>
</svg>
